<svg xmlns="http://www.w3.org/2000/svg" width="79" height="79"><g fill="#D0D0D0"><path d="M.144 40.396c0 17.718 11.297 32.75 26.963 38.052 1.97.37 2.694-.87 2.694-1.93 0-.956-.037-4.115-.054-7.465-10.969 2.425-13.283-4.732-13.283-4.732-1.794-4.635-4.378-5.867-4.378-5.867-3.577-2.49.27-2.438.27-2.438 3.96.282 6.044 4.132 6.044 4.132 3.516 6.13 9.223 4.358 11.473 3.334.354-2.591 1.376-4.362 2.503-5.362-8.757-1.014-17.963-4.453-17.963-19.818 0-4.378 1.54-7.956 4.063-10.764-.41-1.01-1.76-5.088.381-10.612 0 0 3.311-1.078 10.846 4.11 3.145-.888 6.518-1.334 9.868-1.349 3.35.015 6.726.46 9.877 1.35 7.525-5.189 10.832-4.111 10.832-4.111 2.146 5.524.795 9.601.386 10.612 2.528 2.808 4.058 6.386 4.058 10.764 0 15.402-9.224 18.793-18.003 19.786 1.414 1.244 2.674 3.685 2.674 7.426 0 5.365-.045 9.683-.045 11.004 0 1.068.71 2.318 2.708 1.924 15.657-5.308 26.94-20.334 26.94-38.046 0-22.147-17.653-40.1-39.427-40.1C17.8.296.144 18.25.144 40.396z"/><path d="M14.402 57.993c-.286-.13-.447-.402-.354-.602.085-.205.393-.261.679-.125.286.131.45.405.35.605-.087.2-.395.26-.675.122zm1.467 1.505c-.258-.28-.306-.654-.115-.834.194-.177.55-.094.809.185.257.283.308.655.111.834-.188.177-.555.095-.805-.185zm1.479 2.148c-.242-.356-.242-.784.005-.955.245-.171.634-.017.882.337.24.361.24.79-.006.964-.242.171-.637.011-.881-.346zm1.997 2.424c-.345-.323-.44-.782-.224-1.024.219-.243.682-.175 1.021.153.343.323.447.785.216 1.025-.216.242-.676.177-1.013-.154zm2.966 1.773c-.446-.138-.737-.506-.647-.823.092-.316.538-.465.987-.322.446.137.738.502.646.821-.096.314-.54.457-.986.324zm3.376.527c-.472.011-.853-.257-.858-.582 0-.334.37-.606.841-.613.47-.01.853.256.853.585.011.33-.367.604-.836.61zm3.104-.389c-.458.086-.882-.113-.94-.433-.057-.331.275-.662.732-.748.466-.082.883.112.943.44.056.322-.27.654-.735.741z"/></g></svg>