<svg xmlns="http://www.w3.org/2000/svg" width="79" height="79"><g fill="#187FB8" fill-rule="evenodd"><path d="M39.465 78.931C17.704 78.931 0 61.227 0 39.466 0 17.704 17.704 0 39.465 0c21.762 0 39.466 17.704 39.466 39.466 0 21.761-17.704 39.465-39.466 39.465zm0-75.931C19.358 3 3 19.358 3 39.466c0 20.107 16.358 36.465 36.465 36.465 20.108 0 36.466-16.358 36.466-36.465C75.931 19.358 59.573 3 39.465 3z"/><path d="M22.616 33.727h7.19v22.782h-7.19V33.727zm26.835-.219c5.11 0 9.125 3.277 9.125 10.334v12.667h-8.153V44.72c0-3.086-1.275-5.193-4.08-5.193-2.145 0-3.338 1.422-3.893 2.792-.208.492-.176 1.177-.176 1.862v12.328h-8.077s.104-20.883 0-22.782h8.077v3.576c.477-1.564 3.058-3.795 7.177-3.795zM26.078 22.973c2.653 0 4.284 1.701 4.336 3.949 0 2.207-1.683 3.955-4.386 3.955h-.052c-2.602 0-4.29-1.741-4.29-3.949 0-2.25 1.737-3.955 4.392-3.955z"/></g></svg>