<svg xmlns="http://www.w3.org/2000/svg" width="110" height="110"><defs><linearGradient id="a" x1="50%" x2="50%" y1="0%" y2="100%"><stop offset="0%" stop-color="#F1732C"/><stop offset="100%" stop-color="#D74A5A"/></linearGradient><linearGradient id="b" x1="50%" x2="50%" y1="0%" y2="100%"><stop offset="0%" stop-color="#F1732C"/><stop offset="100%" stop-color="#D74A5A"/></linearGradient></defs><g fill="none"><path fill="#FFF" d="M65.314.512a2.313 2.313 0 0 1 .105 0 5.884 5.884 0 0 1 4.073 1.693l15.174 14.957c.424.419.548.546.751.791.674.813 1.004 1.71 1.004 2.84v17.7a2.268 2.268 0 0 1-4.536 0V23.06H65.38a2.268 2.268 0 0 1-2.268-2.265l-.017-15.747H6.42a1.35 1.35 0 0 0-1.351 1.35v96.827a1.35 1.35 0 0 0 1.35 1.353H80.53c.751 0 1.356-.604 1.356-1.353v-5.034a2.268 2.268 0 0 1 4.536 0v5.034a5.888 5.888 0 0 1-5.892 5.889H6.419a5.887 5.887 0 0 1-5.887-5.889V6.4A5.887 5.887 0 0 1 6.419.512h58.895zm14.272 18.012L67.632 6.741l.013 11.783h11.941zM48.24 45.77h53.826a7.028 7.028 0 0 1 7.027 7.031v31.476a7.028 7.028 0 0 1-7.027 7.031H48.24a7.03 7.03 0 0 1-7.03-7.03V52.8a7.03 7.03 0 0 1 7.03-7.03zm0 4.536a2.495 2.495 0 0 0-2.495 2.495v31.476a2.495 2.495 0 0 0 2.495 2.495h53.826a2.492 2.492 0 0 0 2.49-2.495V52.801a2.492 2.492 0 0 0-2.49-2.495H48.24z"/><path fill="url(#a)" d="M38.855 20.854h-25.11c-3.024 0-3.024-4.536 0-4.536h25.11c3.024 0 3.024 4.536 0 4.536zm-8.91 32.4h-16.2c-3.024 0-3.024-4.536 0-4.536h16.2c3.024 0 3.024 4.536 0 4.536zm0 10.042h-16.2c-3.024 0-3.024-4.536 0-4.536h16.2c3.024 0 3.024 4.536 0 4.536zM54.65 32.6H13.745c-3.024 0-3.024-4.536 0-4.536H54.65c3.024 0 3.024 4.536 0 4.536z"/><path fill="url(#b)" d="M75.827 55.017c.63-.08 1.307.119 1.889.736l7.634 8.1c2.074 2.2-1.227 5.311-3.3 3.11l-4.119-4.369.17 14.127c.036 3.024-4.5 3.078-4.536.054L73.4 63.141l-3.406 3.784c-2.023 2.248-5.394-.786-3.371-3.034l7.011-7.79a2.08 2.08 0 0 1 .904-.823c.42-.24.865-.314 1.288-.26z" transform="matrix(1 0 0 -1 0 134.016)"/></g></svg>