<svg xmlns="http://www.w3.org/2000/svg" width="70" height="70"><g fill="#ECF589" fill-rule="evenodd"><circle cx="35" cy="35" r="22"/><path d="M33.968 0h2.064c.7 0 1.267.567 1.267 1.267v6.499c0 .7-.567 1.266-1.267 1.266h-2.064c-.7 0-1.267-.567-1.267-1.266v-6.5c0-.699.567-1.266 1.267-1.266zM55.07 6.078l1.667 1.206a1.267 1.267 0 0 1 .28 1.773l-3.84 5.261c-.41.563-1.2.688-1.765.28l-1.667-1.206a1.267 1.267 0 0 1-.28-1.773l3.84-5.26a1.267 1.267 0 0 1 1.765-.28zM68.51 23.21l.635 1.944a1.267 1.267 0 0 1-.815 1.598l-6.22 2.012a1.267 1.267 0 0 1-1.593-.812l-.635-1.944a1.267 1.267 0 0 1 .815-1.599l6.219-2.011a1.267 1.267 0 0 1 1.594.812zm.635 21.638l-.635 1.944a1.267 1.267 0 0 1-1.594.812l-6.22-2.011a1.267 1.267 0 0 1-.814-1.599l.635-1.944a1.267 1.267 0 0 1 1.594-.812l6.22 2.012a1.267 1.267 0 0 1 .814 1.598zm-12.41 17.87l-1.666 1.205a1.267 1.267 0 0 1-1.766-.28l-3.84-5.261a1.267 1.267 0 0 1 .281-1.773l1.667-1.206a1.267 1.267 0 0 1 1.765.28l3.84 5.261a1.267 1.267 0 0 1-.28 1.773zM36.033 70h-2.064c-.7 0-1.267-.567-1.267-1.267v-6.499c0-.7.567-1.266 1.267-1.266h2.064c.7 0 1.267.567 1.267 1.266v6.5c0 .699-.567 1.266-1.267 1.266zM14.93 63.922l-1.667-1.206a1.267 1.267 0 0 1-.28-1.773l3.84-5.261a1.267 1.267 0 0 1 1.765-.28l1.667 1.206a1.267 1.267 0 0 1 .28 1.773l-3.84 5.26c-.41.564-1.2.69-1.765.28zM1.49 46.79l-.635-1.944a1.267 1.267 0 0 1 .815-1.598l6.22-2.012a1.267 1.267 0 0 1 1.593.812l.635 1.944a1.267 1.267 0 0 1-.815 1.599l-6.219 2.011a1.267 1.267 0 0 1-1.594-.812zM.854 25.153l.635-1.944a1.267 1.267 0 0 1 1.594-.812l6.22 2.011a1.267 1.267 0 0 1 .814 1.599l-.635 1.944a1.267 1.267 0 0 1-1.594.812l-6.22-2.012a1.267 1.267 0 0 1-.814-1.598zm12.41-17.87l1.666-1.205a1.267 1.267 0 0 1 1.766.28l3.84 5.261a1.267 1.267 0 0 1-.281 1.773l-1.667 1.206a1.267 1.267 0 0 1-1.765-.28l-3.84-5.261a1.267 1.267 0 0 1 .28-1.773z"/></g></svg>