<svg xmlns="http://www.w3.org/2000/svg" width="79" height="79"><g fill="none"><circle cx="39.5" cy="39.5" r="39.5" fill="#25D366"/><path fill="#FDFDFD" d="M40.598 61.596h-.01a23.47 23.47 0 0 1-11.182-2.835L17 62l3.32-12.068a23.162 23.162 0 0 1-3.124-11.644C17.201 25.448 27.7 15 40.598 15c6.26.003 12.136 2.428 16.554 6.83 4.419 4.402 6.85 10.254 6.848 16.477-.005 12.838-10.499 23.284-23.402 23.29zm-10.618-7.05l.71.419a19.492 19.492 0 0 0 9.9 2.698h.008c10.721 0 19.446-8.684 19.45-19.358.003-5.172-2.018-10.036-5.69-13.695a19.369 19.369 0 0 0-13.752-5.676c-10.729 0-19.454 8.683-19.459 19.356a19.243 19.243 0 0 0 2.974 10.301l.463.733-1.965 7.143 7.361-1.922zm22.408-10.701c-.146-.243-.536-.389-1.12-.68-.585-.291-3.46-1.699-3.996-1.893-.536-.194-.926-.291-1.316.291-.39.583-1.51 1.893-1.851 2.282-.341.388-.682.437-1.267.145-.585-.29-2.469-.905-4.702-2.888-1.739-1.543-2.912-3.449-3.253-4.031-.341-.583-.037-.898.256-1.188.263-.26.585-.68.877-1.02.293-.339.39-.582.585-.97.195-.389.097-.728-.049-1.02-.146-.29-1.315-3.155-1.803-4.32-.474-1.135-.956-.982-1.315-1-.34-.016-.731-.02-1.12-.02-.39 0-1.024.146-1.56.728-.536.583-2.047 1.99-2.047 4.855 0 2.864 2.096 5.631 2.388 6.02.292.388 4.123 6.266 9.989 8.787 1.395.6 2.484.957 3.333 1.225 1.401.444 2.676.381 3.683.231 1.124-.167 3.46-1.408 3.947-2.767.487-1.36.487-2.525.341-2.767z"/></g></svg>