<svg xmlns="http://www.w3.org/2000/svg" width="58" height="70"><g fill="none" fill-rule="evenodd" stroke="#384575" stroke-width="4" transform="translate(.78 2)"><ellipse cx="14.25" cy="14.376" rx="14.25" ry="14.376" transform="translate(14.25)"/><path d="M2 64.828V39.477c0-.943.779-2.29 1.587-2.75l.089-.053c.072-.046.23-.144.471-.286a39.2 39.2 0 0 1 1.453-.813 54.63 54.63 0 0 1 5.396-2.5c5.668-2.27 11.607-3.629 17.504-3.629 5.897 0 11.834 1.358 17.5 3.626a54.567 54.567 0 0 1 5.392 2.499c.554.295 1.04.569 1.452.812.24.142.4.24.47.285l.112.067c.793.438 1.574 1.79 1.574 2.742v25.351c0 .557-.45 1.008-1.004 1.008H3.004A1.01 1.01 0 0 1 2 64.828z"/></g></svg>