<svg xmlns="http://www.w3.org/2000/svg" width="81" height="79"><defs><filter id="a" width="515.4%" height="515.4%" x="-207.7%" y="-207.7%" filterUnits="objectBoundingBox"><feOffset dx="6" dy="14" in="SourceAlpha" result="shadowOffsetOuter1"/><feColorMatrix in="shadowOffsetOuter1" result="shadowMatrixOuter1" values="0 0 0 0 0.219607843 0 0 0 0 0.270588235 0 0 0 0 0.458823529 0 0 0 1 0"/><feMerge><feMergeNode in="shadowMatrixOuter1"/><feMergeNode in="SourceGraphic"/></feMerge></filter><filter id="b" width="500%" height="500%" x="-200%" y="-200%" filterUnits="objectBoundingBox"><feOffset dx="1" dy="6" in="SourceAlpha" result="shadowOffsetOuter1"/><feColorMatrix in="shadowOffsetOuter1" result="shadowMatrixOuter1" values="0 0 0 0 0.211764706 0 0 0 0 0.270588235 0 0 0 0 0.450980392 0 0 0 1 0"/><feMerge><feMergeNode in="shadowMatrixOuter1"/><feMergeNode in="SourceGraphic"/></feMerge></filter></defs><g fill="none" fill-rule="evenodd" transform="translate(1.78)"><rect width="34" height="34" x="-.5" y="-.5" stroke="#FFF" stroke-opacity=".01" rx="4"/><path fill="#000" fill-opacity=".6" d="M39.493 16a32 32 0 0 0-5.87 18.517c0 17.834 14.55 32.291 32.501 32.291 2.36 0 4.66-.25 6.876-.723A32.187 32.187 0 0 1 47.166 79C29.4 79 15 64.692 15 47.043 15 32.02 25.433 19.418 39.493 16z"/><g fill="#FFF" filter="url(#a)" transform="translate(50 24)"><path d="M4.774 6.416c-.175-.25-.402-.62-1.089-1.582C3.7 4.85.4.608.4.608-.007.086.096 0 .624.411l4.21 3.274c.944.675 1.324.912 1.578 1.09.25-.176.621-.403 1.582-1.09C7.98 3.7 12.22.4 12.22.4c.522-.406.609-.303.198.225l-3.275 4.21c-.674.944-.911 1.324-1.089 1.578.176.25.403.621 1.09 1.582-.015-.014 3.286 4.226 3.286 4.226.406.522.303.609-.226.198l-4.21-3.275c-.944-.674-1.324-.912-1.578-1.09-.25.176-.62.403-1.582 1.09C4.85 9.128.608 12.43.608 12.43c-.522.406-.608.303-.197-.226l3.274-4.21c.675-.944.912-1.324 1.09-1.578z"/></g><g fill="#FFF" filter="url(#b)" transform="translate(72 46)"><path d="M1.611 2.403C1.618 2.409.131.499.131.499-.053.262-.01.222.23.407l1.9 1.477c.425.305.597.412.711.492.113-.08.28-.182.714-.492-.007.007 1.904-1.48 1.904-1.48.236-.184.277-.139.091.1L4.073 2.403c-.304.426-.41.597-.491.712.08.113.182.28.491.713-.006-.006 1.48 1.904 1.48 1.904.185.237.14.277-.099.092l-1.9-1.477c-.425-.305-.596-.412-.71-.492-.114.08-.28.182-.714.492.006-.007-1.904 1.48-1.904 1.48-.237.184-.277.139-.092-.1l1.477-1.899c.304-.426.411-.597.492-.712-.08-.113-.182-.28-.492-.713z"/></g></g></svg>