<svg xmlns="http://www.w3.org/2000/svg" width="79" height="79" viewBox="0 0 79 79">
  <g fill="none">
    <path fill="#000" d="M0.144289256,40.3961539 C0.144289256,58.113672 11.4412893,73.1451079 27.1067934,78.4475472 C29.0772231,78.8187512 29.8006281,77.5776418 29.8006281,76.518482 C29.8006281,75.5622501 29.7640661,72.4033641 29.7470909,69.0525678 C18.7784959,71.4783425 16.4639917,64.3212115 16.4639917,64.3212115 C14.6704959,59.6861425 12.0863471,58.4536657 12.0863471,58.4536657 C8.50914876,55.9648063 12.3559917,56.0159382 12.3559917,56.0159382 C16.3151323,56.2981594 18.3998182,60.1483213 18.3998182,60.1483213 C21.9162976,66.278831 27.6232314,64.5064815 29.8730992,63.4818523 C30.226967,60.8907292 31.2487437,59.1203718 32.3762893,58.1196486 C23.6190413,57.1056442 14.4132563,53.6671933 14.4132563,38.3017402 C14.4132563,33.9236585 15.9534297,30.3464212 18.4755537,27.5381537 C18.06619,26.5274696 16.7166611,22.4495385 18.8574959,16.9259705 C18.8574959,16.9259705 22.168314,15.8482174 29.7026943,21.0364402 C32.8476777,20.1479412 36.2205207,19.7023637 39.5711653,19.6870904 C42.92181,19.7023637 46.2972644,20.1479412 49.448124,21.0364402 C56.9733636,15.8482174 60.2796116,16.9259705 60.2796116,16.9259705 C62.4256694,22.4495385 61.0754876,26.5274696 60.666124,27.5381537 C63.194124,30.3464212 64.7238513,33.9236585 64.7238513,38.3017402 C64.7238513,53.703716 55.500438,57.0950194 46.7209917,58.0877741 C48.135157,59.3322039 49.3952397,61.7725876 49.3952397,65.5138453 C49.3952397,70.8787053 49.3495372,75.1970225 49.3495372,76.518482 C49.3495372,77.5856104 50.0592314,78.8360165 52.0577356,78.4422348 C67.714752,73.1338191 78.9973884,58.1076956 78.9973884,40.3961539 C78.9973884,18.2487582 61.3451323,0.296166302 39.5711653,0.296166302 C17.799157,0.296166302 0.144289256,18.2487582 0.144289256,40.3961539 Z"/>
    <path fill="#6F6F6F" d="M14.4015041 57.993479C14.1155372 57.8626612 13.9549256 57.5910648 14.0476364 57.3911857 14.1325124 57.1859942 14.4413306 57.12955 14.7266446 57.2656803 15.0132644 57.3971621 15.1764876 57.6714148 15.077248 57.8712939 14.9904133 58.0711728 14.682248 58.1302734 14.4015041 57.993479zM15.8692066 59.4975523C15.611314 59.2179872 15.563 58.8441271 15.7536446 58.6641696 15.9475537 58.4868682 16.304033 58.5698744 16.5625786 58.8494395 16.820471 59.1323248 16.8707437 59.5035288 16.6742231 59.6828223 16.4861901 59.8601236 16.1186116 59.7777815 15.8692066 59.4975523zM17.3480083 61.6464181C17.106438 61.2898232 17.106438 60.8621751 17.3532314 60.6908502 17.5980661 60.5195253 17.9871901 60.6735848 18.2346364 61.0275236 18.4755537 61.3894307 18.4755537 61.817743 18.2287603 61.9923882 17.9871901 62.1630491 17.5921901 62.003013 17.3480083 61.6464181zM19.3452066 64.0702007C19.0004793 63.7468083 18.9045041 63.2879498 19.1212644 63.0455715 19.3399834 62.8025292 19.8028843 62.8709263 20.1423884 63.198967 20.4845041 63.5216954 20.588967 63.9838742 20.3584959 64.2235962 20.1423884 64.4659745 19.6820992 64.4008975 19.3452066 64.0702007zM22.3112976 65.8425501C21.8653719 65.7050917 21.573529 65.337208 21.6636281 65.0197922 21.7563389 64.7037043 22.2016116 64.5549571 22.6514546 64.6977279 23.0967273 64.8345222 23.3892231 65.1997498 23.2965124 65.5191577 23.2011901 65.8332534 22.757876 65.9760241 22.3112976 65.8425501zM25.686752 66.3698058C25.2153636 66.3810946 24.8340744 66.1134825 24.8288513 65.788098 24.8288513 65.4540809 25.1990413 65.1824844 25.6704297 65.1745158 26.1392066 65.1652191 26.5231074 65.4308391 26.5231074 65.7595439 26.5342066 66.0902407 26.155529 66.3644934 25.686752 66.3698058zM28.7906033 65.9813365C28.3329256 66.066999 27.9091983 65.8677839 27.8510909 65.547712 27.7942893 65.217015 28.1259587 64.8856541 28.5829834 64.7999916 29.0491487 64.7176495 29.4663471 64.911552 29.5257603 65.2395927 29.5819091 65.5623211 29.2561157 65.893682 28.7906033 65.9813365z"/>
  </g>
</svg>
