<svg xmlns="http://www.w3.org/2000/svg" width="58" height="70" viewBox="0 0 58 70">
  <g fill="none" fill-rule="evenodd" stroke="#384575" stroke-width="4" transform="translate(.78 2)">
    <ellipse cx="14.25" cy="14.376" rx="14.25" ry="14.376" transform="translate(14.25)"/>
    <path d="M2,30.4535927 L2,55.805283 C2,56.7483279 2.77888903,58.0943606 3.5872798,58.554967 L3.67568993,58.6084124 C3.74750392,58.6543988 3.9061684,58.7520956 4.14697568,58.8941328 C4.56002472,59.1377647 5.04595658,59.4111154 5.60003297,59.7068265 C7.19435279,60.5577166 9.00566702,61.4107557 10.995573,62.2074024 C16.6640268,64.4767334 22.602601,65.8355865 28.5,65.8355865 C34.3974852,65.8355865 40.3343046,64.4776565 45.99983,62.2098832 C47.9886707,61.4137981 49.7988459,60.5613651 51.3920285,59.7110849 C51.9457009,59.4155905 52.4312567,59.1424424 52.8439669,58.8989941 C53.0845644,58.7570711 53.2430747,58.6594597 53.3147993,58.6135246 L53.4259373,58.547316 C54.2192328,58.1088452 55,56.7565471 55,55.805283 L55,30.4535927 C55,29.8973183 54.5493122,29.4460059 53.9957112,29.4460059 L3.00428883,29.4460059 C2.45438112,29.4460059 2,29.9000809 2,30.4535927 Z" transform="matrix(1 0 0 -1 0 95.282)"/>
  </g>
</svg>
