<svg xmlns="http://www.w3.org/2000/svg" width="79" height="79" viewBox="0 0 79 79">
  <g fill="#187FB8" fill-rule="evenodd">
    <path d="M39.465,78.931 C17.704,78.931 5.68434189e-14,61.227 5.68434189e-14,39.466 C5.68434189e-14,17.704 17.704,2.84217094e-14 39.465,2.84217094e-14 C61.227,2.84217094e-14 78.931,17.704 78.931,39.466 C78.931,61.227 61.227,78.931 39.465,78.931 L39.465,78.931 Z M39.465,3 C19.358,3 3,19.358 3,39.466 C3,59.573 19.358,75.931 39.465,75.931 C59.573,75.931 75.931,59.573 75.931,39.466 C75.931,19.358 59.573,3 39.465,3 L39.465,3 Z"/>
    <path d="M22.616,33.727 L29.806,33.727 L29.806,56.509 L22.616,56.509 L22.616,33.727 Z M49.451,33.508 C54.561,33.508 58.576,36.785 58.576,43.842 L58.576,56.509 L50.423,56.509 L50.423,44.72 C50.423,41.634 49.148,39.527 46.343,39.527 C44.198,39.527 43.005,40.949 42.45,42.319 C42.242,42.811 42.274,43.496 42.274,44.181 L42.274,56.509 L34.197,56.509 C34.197,56.509 34.301,35.626 34.197,33.727 L42.274,33.727 L42.274,37.303 C42.751,35.739 45.332,33.508 49.451,33.508 Z M26.078,22.973 C28.731,22.973 30.362,24.674 30.414,26.922 C30.414,29.129 28.731,30.877 26.028,30.877 L25.976,30.877 C23.374,30.877 21.686,29.136 21.686,26.928 C21.686,24.678 23.423,22.973 26.078,22.973 Z"/>
  </g>
</svg>
