<svg xmlns="http://www.w3.org/2000/svg" width="79" height="79" viewBox="0 0 79 79">
  <g fill="none">
    <circle cx="39.5" cy="39.5" r="39.5" fill="#0971BD"/>
    <path fill="#FFF" d="M39.9992094,37.75504 C36.9109484,37.75504 21,28.6256 21,28.6256 L21,27.2 C21,25.4336 22.4168366,24 24.1657442,24 L55.8326745,24 C57.5831634,24 59,25.4336 59,27.2 L58.9746993,28.8 C58.9746993,28.8 43.2361117,37.75504 39.9992094,37.75504 Z M39.9992094,42.15504 C43.384753,42.15504 58.9746993,33.6 58.9746993,33.6 L59,52.8 C59,54.5664 57.5831634,56 55.8326745,56 L24.1657442,56 C22.4184179,56 21,54.5664 21,52.8 L21.0253007,33.6 C21.0237194,33.6 36.9109484,42.15504 39.9992094,42.15504 Z"/>
  </g>
</svg>
