<svg xmlns="http://www.w3.org/2000/svg" width="81" height="79" viewBox="0 0 81 79">
  <defs>
    <filter id="night-a" width="515.4%" height="515.4%" x="-207.7%" y="-207.7%" filterUnits="objectBoundingBox">
      <feOffset dx="6" dy="14" in="SourceAlpha" result="shadowOffsetOuter1"/>
      <feColorMatrix in="shadowOffsetOuter1" result="shadowMatrixOuter1" values="0 0 0 0 0.219607843   0 0 0 0 0.270588235   0 0 0 0 0.458823529  0 0 0 1 0"/>
      <feMerge>
        <feMergeNode in="shadowMatrixOuter1"/>
        <feMergeNode in="SourceGraphic"/>
      </feMerge>
    </filter>
    <filter id="night-b" width="500%" height="500%" x="-200%" y="-200%" filterUnits="objectBoundingBox">
      <feOffset dx="1" dy="6" in="SourceAlpha" result="shadowOffsetOuter1"/>
      <feColorMatrix in="shadowOffsetOuter1" result="shadowMatrixOuter1" values="0 0 0 0 0.211764706   0 0 0 0 0.270588235   0 0 0 0 0.450980392  0 0 0 1 0"/>
      <feMerge>
        <feMergeNode in="shadowMatrixOuter1"/>
        <feMergeNode in="SourceGraphic"/>
      </feMerge>
    </filter>
  </defs>
  <g fill="none" fill-rule="evenodd" transform="translate(1.78)">
    <rect width="34" height="34" x="-.5" y="-.5" stroke="#FFF" stroke-opacity=".01" rx="4"/>
    <g transform="translate(15 16)">
      <path fill="#000" fill-opacity=".6" d="M24.4931009,-2.41746179e-10 C20.7934116,5.24261854 18.62216,11.627732 18.62216,18.5166866 C18.62216,36.3509434 33.1738534,50.8084651 51.1242769,50.8084651 C53.4833232,50.8084651 55.7836691,50.5587658 58,50.0845182 C52.138116,57.9219569 42.7487156,63 32.1655492,63 C14.4010069,63 0,48.6921896 0,31.042611 C0,16.0200525 10.4330668,3.4184976 24.4931009,-2.46370813e-10 Z"/>
      <g fill="#FFF" filter="url(#night-a)" transform="translate(35 8)">
        <path d="M4.77437385,6.41621355 C4.59885461,6.16585998 4.3717265,5.79537967 3.68521487,4.83426338 C3.69951515,4.84856367 0.398822039,0.608239156 0.398822039,0.608239156 C-0.00726019322,0.0864990439 0.0955040137,-0.000486858041 0.623999488,0.410565171 C0.623999488,0.410565171 4.83426319,3.68521466 4.83426325,3.68521473 C5.7784579,4.3596395 6.1584886,4.59657171 6.41219683,4.77437385 C6.6625504,4.59885461 7.03303071,4.3717265 7.994147,3.68521487 C7.97984671,3.69951515 12.2201712,0.398822039 12.2201712,0.398822039 C12.7419113,-0.00726019322 12.8288972,0.0955040137 12.4178452,0.623999488 C12.4178452,0.623999488 9.14319572,4.83426319 9.14319565,4.83426325 C8.46877088,5.7784579 8.23183867,6.1584886 8.05403653,6.41219683 C8.22955577,6.6625504 8.45668388,7.03303071 9.14319551,7.994147 C9.12889523,7.97984671 12.4295883,12.2201712 12.4295883,12.2201712 C12.8356706,12.7419113 12.7329064,12.8288972 12.2044109,12.4178452 C12.2044109,12.4178452 7.99414719,9.14319572 7.99414713,9.14319565 C7.04995248,8.46877088 6.66992178,8.23183867 6.41621355,8.05403653 C6.16585998,8.22955577 5.79537967,8.45668388 4.83426338,9.14319551 C4.84856367,9.12889523 0.608239156,12.4295883 0.608239156,12.4295883 C0.0864990439,12.8356706 -0.000486858041,12.7329064 0.410565171,12.2044109 C0.410565171,12.2044109 3.68521466,7.99414719 3.68521473,7.99414713 C4.3596395,7.04995248 4.59657171,6.66992178 4.77437385,6.41621355 L4.77437385,6.41621355 Z"/>
      </g>
      <g fill="#FFF" filter="url(#night-b)" transform="translate(57 30)">
        <path d="M1.61121198,2.40282614 C1.61766272,2.40927688 0.130862289,0.499219022 0.130862289,0.499219022 C-0.0534865038,0.262365033 -0.00807756159,0.221909397 0.230322474,0.407331644 C0.230322474,0.407331644 2.12953838,1.88449955 2.12953841,1.88449958 C2.55545698,2.18872714 2.72688576,2.29560534 2.84133149,2.37581045 C2.95426396,2.29663514 3.12138463,2.19417949 3.55493642,1.88449964 C3.54848568,1.89095038 5.45854353,0.404149954 5.45854353,0.404149954 C5.69539752,0.219801161 5.73585316,0.265210103 5.55043091,0.503610139 C5.55043091,0.503610139 4.07326301,2.40282605 4.07326297,2.40282608 C3.76903542,2.82874465 3.66215721,3.00017342 3.5819521,3.11461915 C3.66112741,3.22755162 3.76358307,3.3946723 4.07326291,3.82822408 C4.06681217,3.82177334 5.5536126,5.7318312 5.5536126,5.7318312 C5.73796139,5.96868519 5.69255245,6.00914082 5.45415242,5.82371858 C5.45415242,5.82371858 3.55493651,4.34655067 3.55493648,4.34655064 C3.12901791,4.04232308 2.95758913,3.93544488 2.8431434,3.85523977 C2.73021093,3.93441508 2.56309026,4.03687073 2.12953847,4.34655058 C2.13598921,4.34009984 0.225931358,5.82690027 0.225931358,5.82690027 C-0.0109226321,6.01124906 -0.0513782677,5.96584012 0.134043979,5.72744008 C0.134043979,5.72744008 1.61121188,3.82822417 1.61121192,3.82822414 C1.91543947,3.40230557 2.02231768,3.2308768 2.10252279,3.11643107 C2.02334748,3.0034986 1.92089182,2.83637792 1.61121198,2.40282614 Z"/>
      </g>
    </g>
  </g>
</svg>
