<svg xmlns="http://www.w3.org/2000/svg" width="110" height="110" viewBox="0 0 110 110">
  <defs>
    <linearGradient id="resume-a" x1="50%" x2="50%" y1="0%" y2="100%">
      <stop offset="0%" stop-color="#F1732C"/>
      <stop offset="100%" stop-color="#D74A5A"/>
    </linearGradient>
    <linearGradient id="resume-b" x1="50%" x2="50%" y1="0%" y2="100%">
      <stop offset="0%" stop-color="#F1732C"/>
      <stop offset="100%" stop-color="#D74A5A"/>
    </linearGradient>
  </defs>
  <g fill="none">
    <path fill="#FFF" d="M65.3142418,0.511543978 C65.328667,0.511258151 65.3431253,0.511106972 65.3576155,0.511091646 C65.3780864,0.511069996 65.3984942,0.511319624 65.4188356,0.511837135 C66.9444749,0.527045461 68.4051085,1.13344331 69.4918572,2.20488569 L84.666057,17.1622595 C85.0903413,17.5806742 85.2142256,17.7077604 85.4173725,17.9529734 C86.0911298,18.7662473 86.4211157,19.662148 86.4211157,20.7924535 L86.4211157,38.4932862 C86.4211157,39.745868 85.4056975,40.7612862 84.1531157,40.7612862 C82.9005339,40.7612862 81.8851157,39.745868 81.8851157,38.4932862 L81.8851157,23.0604535 L65.3790653,23.0604535 C64.1274202,23.0604535 63.1123904,22.0464966 63.1110666,20.7948522 L63.094412,5.04754396 L40.0700005,5.04754396 L6.41877676,5.04754396 C5.67183742,5.04754396 5.06750236,5.65198368 5.06750236,6.39881836 L5.06750236,103.225181 C5.06750236,103.973298 5.671759,104.577816 6.41877676,104.577816 L80.5297589,104.577816 C81.2810509,104.577816 81.8855693,103.973559 81.8855693,103.225181 L81.8855693,98.1911284 C81.8855693,96.9385466 82.9009875,95.9231284 84.1535693,95.9231284 C85.4061511,95.9231284 86.4215693,96.9385466 86.4215693,98.1911284 L86.4215693,103.225181 C86.4215693,106.479163 83.7857753,109.113816 80.5297589,109.113816 L6.41877676,109.113816 C3.16615576,109.113816 0.531502378,106.478022 0.531502378,103.225181 L0.531502378,6.39881836 C0.531502378,3.14699588 3.16649796,0.511543978 6.41877676,0.511543978 L40.0700005,0.511543978 L65.3142418,0.511543978 Z M79.586462,18.5244535 L67.6322056,6.74101302 L67.6446679,18.5244535 L79.586462,18.5244535 Z M48.2388822,45.770391 L102.065326,45.770391 C105.946402,45.770391 109.09159,48.9180645 109.09159,52.801191 L109.09159,84.2774021 C109.09159,88.1605285 105.946402,91.308202 102.065326,91.308202 L48.2388822,91.308202 C44.3559577,91.308202 41.2080822,88.1609477 41.2080822,84.2774021 L41.2080822,52.801191 C41.2080822,48.9176453 44.3559577,45.770391 48.2388822,45.770391 Z M48.2388822,50.306391 C46.860921,50.306391 45.7440822,51.4230094 45.7440822,52.801191 L45.7440822,84.2774021 C45.7440822,85.6555837 46.860921,86.7722021 48.2388822,86.7722021 L102.065326,86.7722021 C103.440436,86.7722021 104.55559,85.6561665 104.55559,84.2774021 L104.55559,52.801191 C104.55559,51.4224265 103.440436,50.306391 102.065326,50.306391 L48.2388822,50.306391 Z"/>
    <path fill="url(#resume-a)" d="M38.8550005,20.8542713 L13.7450002,20.8542713 C10.7210001,20.8542713 10.7210001,16.3182712 13.7450002,16.3182712 L38.8550005,16.3182712 C41.8790005,16.3182712 41.8790005,20.8542713 38.8550005,20.8542713 Z M29.9450004,53.2542717 L13.7450002,53.2542717 C10.7210001,53.2542717 10.7210001,48.7182716 13.7450002,48.7182716 L29.9450004,48.7182716 C32.9690004,48.7182716 32.9690004,53.2542717 29.9450004,53.2542717 Z M29.9450004,63.2963864 L13.7450002,63.2963864 C10.7210001,63.2963864 10.7210001,58.7603863 13.7450002,58.7603863 L29.9450004,58.7603863 C32.9690004,58.7603863 32.9690004,63.2963864 29.9450004,63.2963864 Z M54.6500007,32.5992714 L13.7450002,32.5992714 C10.7210001,32.5992714 10.7210001,28.0632714 13.7450002,28.0632714 L54.6500007,28.0632714 C57.6740007,28.0632714 57.6740007,32.5992714 54.6500007,32.5992714 Z"/>
    <path fill="url(#resume-b)" d="M75.82721,55.0171895 C76.4562144,54.9360957 77.1343281,55.1355021 77.7159571,55.752628 L85.350049,63.8526281 C87.4241131,66.0532722 84.123147,69.1643683 82.0490829,66.9637242 L77.9310747,62.5943943 L78.1003572,76.7210003 C78.1365919,79.7447833 73.6009175,79.7991353 73.5646828,76.7753524 L73.4012992,63.1410079 L69.9953569,66.9253882 C67.9724075,69.1731097 64.6008252,66.1386857 66.6237746,63.8909642 L73.6353299,56.1003471 C73.8532135,55.7285456 74.1722571,55.4541301 74.539059,55.2777406 C74.9589779,55.0370872 75.40353,54.9638884 75.82721,55.0171895 Z" transform="matrix(1 0 0 -1 0 134.016)"/>
  </g>
</svg>
