<svg xmlns="http://www.w3.org/2000/svg" width="70" height="70" viewBox="0 0 70 70">
  <g fill="#ECF589" fill-rule="evenodd">
    <circle cx="35" cy="35" r="22"/>
    <path d="M33.9679077,0 L36.0320923,0 C36.731653,-1.28507213e-16 37.298759,0.567105984 37.298759,1.26666667 L37.298759,7.7655914 C37.298759,8.46515208 36.731653,9.03225806 36.0320923,9.03225806 L33.9679077,9.03225806 C33.268347,9.03225806 32.701241,8.46515208 32.701241,7.7655914 L32.701241,1.26666667 C32.701241,0.567105984 33.268347,5.72596423e-16 33.9679077,4.4408921e-16 Z M55.0698345,6.07847818 L56.7365138,7.2838147 C57.3033709,7.69376372 57.43057,8.48562152 57.0206209,9.0524786 C57.0195347,9.05398061 57.0184452,9.05548023 57.0173523,9.05697745 L53.1773293,14.3179742 C52.7661754,14.8812727 51.9770322,15.0062595 51.411934,14.5975825 L49.7452547,13.392246 C49.1783976,12.9822969 49.0511985,12.1904391 49.4611476,11.6235821 C49.4622338,11.6220801 49.4633234,11.6205804 49.4644162,11.6190832 L53.3044392,6.35808649 C53.7155931,5.79478793 54.5047363,5.66980119 55.0698345,6.07847818 Z M68.5109751,23.2091 L69.1455663,25.153176 C69.3626465,25.8182034 68.9995137,26.5332928 68.3344864,26.750373 C68.3333973,26.7507285 68.3323078,26.7510825 68.3312177,26.7514351 L62.1116947,28.7629736 C61.4473575,28.9778358 60.7344302,28.6145834 60.5177663,27.9508317 L59.8831751,26.0067556 C59.6660949,25.3417283 60.0292277,24.6266388 60.694255,24.4095586 C60.6953441,24.4092031 60.6964336,24.4088491 60.6975237,24.4084965 L66.9170467,22.396958 C67.5813839,22.1820959 68.2943112,22.5453482 68.5109751,23.2091 Z M69.1455663,44.846824 L68.5109751,46.7909 C68.2943112,47.4546518 67.5813839,47.8179041 66.9170467,47.603042 L60.6975237,45.5915035 C60.0319098,45.3762284 59.666838,44.6621269 59.8821131,43.996513 C59.8824656,43.995423 59.8828196,43.9943335 59.8831751,43.9932444 L60.5177663,42.0491683 C60.7344302,41.3854166 61.4473575,41.0221642 62.1116947,41.2370264 L68.3312177,43.2485649 C68.9968316,43.4638399 69.3619034,44.1779415 69.1466283,44.8435553 C69.1462758,44.8446454 69.1459218,44.8457349 69.1455663,44.846824 Z M56.7365138,62.7161853 L55.0698345,63.9215218 C54.5047363,64.3301988 53.7155931,64.2052121 53.3044392,63.6419135 L49.4644162,58.3809168 C49.0519825,57.8158649 49.175704,57.0234563 49.7407559,56.6110227 C49.7422531,56.6099298 49.7437527,56.6088403 49.7452547,56.607754 L51.411934,55.4024175 C51.9770322,54.9937405 52.7661754,55.1187273 53.1773293,55.6820258 L57.0173523,60.9430225 C57.429786,61.5080744 57.3060645,62.300483 56.7410126,62.7129167 C56.7395154,62.7140095 56.7380158,62.7150991 56.7365138,62.7161853 Z M36.0320923,70 L33.9679077,70 C33.268347,70 32.701241,69.432894 32.701241,68.7333333 L32.701241,62.2344086 C32.701241,61.5348479 33.268347,60.9677419 33.9679077,60.9677419 L36.0320923,60.9677419 C36.731653,60.9677419 37.298759,61.5348479 37.298759,62.2344086 L37.298759,68.7333333 C37.298759,69.432894 36.731653,70 36.0320923,70 Z M14.9301655,63.9215218 L13.2634862,62.7161853 C12.6966291,62.3062363 12.56943,61.5143785 12.9793791,60.9475214 C12.9804653,60.9460194 12.9815548,60.9445198 12.9826477,60.9430225 L16.8226707,55.6820258 C17.2338246,55.1187273 18.0229678,54.9937405 18.588066,55.4024175 L20.2547453,56.607754 C20.8216024,57.0177031 20.9488015,57.8095609 20.5388524,58.3764179 C20.5377662,58.3779199 20.5366766,58.3794196 20.5355838,58.3809168 L16.6955608,63.6419135 C16.2844069,64.2052121 15.4952637,64.3301988 14.9301655,63.9215218 Z M1.48902491,46.7909 L0.854433702,44.846824 C0.63735347,44.1817966 1.00048632,43.4667072 1.66551363,43.249627 C1.66660269,43.2492715 1.66769224,43.2489175 1.66878226,43.2485649 L7.88830532,41.2370264 C8.5526425,41.0221642 9.26556982,41.3854166 9.48223368,42.0491683 L10.1168249,43.9932444 C10.3339051,44.6582717 9.97077227,45.3733612 9.30574496,45.5904414 C9.3046559,45.5907969 9.30356636,45.5911509 9.30247634,45.5915035 L3.08295328,47.603042 C2.4186161,47.8179041 1.70568877,47.4546518 1.48902491,46.7909 Z M0.854433702,25.153176 L1.48902491,23.2091 C1.70568877,22.5453482 2.4186161,22.1820959 3.08295328,22.396958 L9.30247634,24.4084965 C9.9680902,24.6237716 10.333162,25.3378731 10.1178869,26.003487 C10.1175344,26.004577 10.1171804,26.0056665 10.1168249,26.0067556 L9.48223368,27.9508317 C9.26556982,28.6145834 8.5526425,28.9778358 7.88830532,28.7629736 L1.66878226,26.7514351 C1.0031684,26.5361601 0.638096632,25.8220585 0.853371652,25.1564447 C0.85372419,25.1553546 0.854078207,25.1542651 0.854433702,25.153176 Z M13.2634862,7.2838147 L14.9301655,6.07847818 C15.4952637,5.66980119 16.2844069,5.79478793 16.6955608,6.35808649 L20.5355838,11.6190832 C20.9480175,12.1841351 20.824296,12.9765437 20.2592441,13.3889773 C20.2577469,13.3900702 20.2562473,13.3911597 20.2547453,13.392246 L18.588066,14.5975825 C18.0229678,15.0062595 17.2338246,14.8812727 16.8226707,14.3179742 L12.9826477,9.05697745 C12.570214,8.49192559 12.6939355,7.69951699 13.2589874,7.28708332 C13.2604846,7.28599048 13.2619842,7.28490094 13.2634862,7.2838147 Z"/>
  </g>
</svg>
