<svg xmlns="http://www.w3.org/2000/svg" width="79" height="79" viewBox="0 0 79 79">
  <g fill="#24A9E6" fill-rule="evenodd">
    <path d="M39.466,78.931 C17.705,78.931 -5.68434189e-14,61.227 -5.68434189e-14,39.466 C-5.68434189e-14,17.704 17.705,2.84217094e-14 39.466,2.84217094e-14 C61.228,2.84217094e-14 78.932,17.704 78.932,39.466 C78.932,61.227 61.228,78.931 39.466,78.931 L39.466,78.931 Z M39.466,3 C19.359,3 3,19.358 3,39.466 C3,59.573 19.359,75.931 39.466,75.931 C59.574,75.931 75.932,59.573 75.932,39.466 C75.932,19.358 59.574,3 39.466,3 L39.466,3 Z"/>
    <path d="M56.7,24.226 C55.214,25.128 53.572,25.784 51.817,26.135 C50.419,24.605 48.421,23.649 46.209,23.649 C41.969,23.649 38.528,27.177 38.528,31.528 C38.528,32.145 38.594,32.745 38.726,33.322 C32.34,32.993 26.679,29.86 22.887,25.087 C22.225,26.255 21.847,27.61 21.847,29.052 C21.847,31.785 23.203,34.197 25.266,35.61 C24.008,35.572 22.821,35.214 21.783,34.627 L21.783,34.724 C21.783,38.543 24.432,41.729 27.95,42.45 C27.306,42.635 26.626,42.727 25.925,42.727 C25.43,42.727 24.947,42.68 24.479,42.588 C25.457,45.717 28.293,47.996 31.656,48.056 C29.027,50.171 25.712,51.431 22.113,51.431 C21.493,51.431 20.88,51.395 20.28,51.323 C23.68,53.555 27.721,54.86 32.059,54.86 C46.194,54.86 53.921,42.856 53.921,32.443 C53.921,32.1 53.915,31.758 53.902,31.422 C55.403,30.31 56.707,28.924 57.733,27.344 C56.357,27.97 54.875,28.394 53.321,28.584 C54.908,27.61 56.126,26.065 56.7,24.226"/>
  </g>
</svg>
