<svg xmlns="http://www.w3.org/2000/svg" width="79" height="79" viewBox="0 0 79 79">
  <g fill="none">
    <circle cx="39.5" cy="39.5" r="39.5" fill="#25D366"/>
    <path fill="#FDFDFD" d="M40.5983924,61.596121 L40.5887106,61.596121 C36.6721192,61.5947766 32.8236824,60.6168088 29.4056093,58.7613274 L17,62 L20.3199502,49.9315173 C18.2720423,46.3994589 17.1944449,42.3929815 17.196201,38.2882459 C17.2013346,25.447208 27.6993533,15 40.5981671,15 C46.8584092,15.0026889 52.7340843,17.4281137 57.1523238,21.8303583 C61.5705631,26.2323788 64.0024749,32.0837386 63.9999981,38.3066203 C63.9948195,51.1447451 53.5009663,61.5908777 40.5983924,61.596121 L40.5983924,61.596121 Z M29.9803879,54.5450903 L30.690643,54.96461 C33.6770018,56.7282864 37.1002535,57.6615057 40.5905118,57.6628502 L40.5983924,57.6628502 C51.3189779,57.6628502 60.0444547,48.9789376 60.0487326,38.3052759 C60.050759,33.1328738 58.0295321,28.2694758 54.3572352,24.6104993 C50.6849382,20.9515228 45.8013009,18.9354893 40.6060476,18.9336966 C29.8771763,18.9336966 21.151587,27.6167354 21.1473315,38.2895904 C21.1458229,41.9472672 22.1741562,45.509397 24.1211941,48.5913491 L24.5836648,49.3237495 L22.618727,56.4669661 L29.9803879,54.5450903 Z M52.3880194,43.8448305 C52.2418931,43.6020863 51.8521477,43.4564577 51.2674171,43.1650662 C50.6826865,42.873809 47.8078927,41.4661708 47.2717959,41.2717828 C46.7359242,41.0776637 46.3459537,40.9806601 45.9562084,41.5630399 C45.566463,42.1455318 44.4458609,43.4564577 44.1047492,43.8448305 C43.7636376,44.2330912 43.4225261,44.2818506 42.8380207,43.9904591 C42.2532902,43.6992019 40.3691833,43.0847565 38.1357017,41.1021106 C36.3974061,39.5589946 35.2238922,37.6534317 34.8828031,37.0708278 C34.5417141,36.488224 34.8464404,36.1733937 35.1391659,35.8832122 C35.4022384,35.6223849 35.7239415,35.2033584 36.0162843,34.8636554 C36.3086271,34.5239525 36.4060746,34.2810515 36.6009923,33.8929477 C36.7958875,33.5043957 36.6984624,33.1646929 36.5522459,32.873391 C36.4060746,32.582089 35.236681,29.7176946 34.7494205,28.5524868 C34.2747464,27.4177537 33.7927095,27.5714715 33.4338106,27.5535452 C33.0931268,27.5365152 32.7028861,27.53293 32.3131184,27.53293 C31.923328,27.53293 31.2898061,27.678581 30.7538443,28.2611849 C30.2178826,28.8437888 28.7073325,30.2516734 28.7073325,33.1158437 C28.7073325,35.9802382 30.8025456,38.7473825 31.0949334,39.1357105 C31.3872762,39.5242624 35.2180831,45.4019738 41.083829,47.9226544 C42.4788966,48.5222658 43.5679769,48.8803206 44.417266,49.1484754 C45.8179625,49.5915008 47.0927967,49.5289829 48.1001453,49.3790745 C49.2236746,49.2120687 51.5596698,47.9714362 52.0471329,46.612154 C52.5341457,45.2526031 52.5341457,44.0874626 52.3880194,43.8448305 L52.3880194,43.8448305 Z"/>
  </g>
</svg>
